<svg width="18" height="17" viewBox="0 0 18 17" fill="none" xmlns="http://www.w3.org/2000/svg">
<path d="M3.44091 0.151733C1.63915 0.151733 0.160706 1.54804 0.160706 3.2497V13.7502C0.160706 15.4518 1.63915 16.8482 3.44091 16.8482H14.5591C16.3608 16.8482 17.8393 15.4518 17.8393 13.7502V3.2497C17.8393 1.54804 16.3608 0.151733 14.5591 0.151733H3.44091ZM3.44091 1.66959H14.5591C15.4913 1.66959 16.2321 2.36923 16.2321 3.2497V13.7502C16.2321 14.6307 15.4913 15.3303 14.5591 15.3303H3.44091C2.50864 15.3303 1.76785 14.6307 1.76785 13.7502V3.2497C1.76785 2.36923 2.50864 1.66959 3.44091 1.66959ZM8.77399 5.63914C8.18386 5.63321 7.68163 5.63914 7.39913 5.76958C7.21079 5.85556 7.0664 6.05122 7.15429 6.06011C7.26415 6.07493 7.51213 6.12533 7.64396 6.29431C7.81347 6.51072 7.80719 6.99988 7.80719 6.99988C7.80719 6.99988 7.90136 8.34579 7.57805 8.51477C7.35518 8.63039 7.0507 8.39619 6.39152 7.32598C6.05566 6.77457 5.8014 6.16683 5.8014 6.16683C5.8014 6.16683 5.75432 6.05418 5.66643 5.99489C5.5597 5.92078 5.41217 5.89706 5.41217 5.89706L3.83956 5.90595C3.83956 5.90595 3.60413 5.91485 3.51938 6.00971C3.44091 6.09865 3.5131 6.27356 3.5131 6.27356C3.5131 6.27356 4.74357 8.99206 6.13727 10.3617C7.41482 11.6187 8.86502 11.5357 8.86502 11.5357H9.5242C9.5242 11.5357 9.72195 11.5149 9.8224 11.4141C9.91656 11.3192 9.91342 11.1414 9.91342 11.1414C9.91342 11.1414 9.90087 10.3083 10.3089 10.1838C10.7139 10.0652 11.2286 10.9902 11.778 11.3459C12.1954 11.6157 12.5125 11.5564 12.5125 11.5564L13.9815 11.5357C13.9815 11.5357 14.7474 11.4912 14.3833 10.919C14.355 10.8746 14.173 10.4981 13.2941 9.72728C12.3712 8.92091 12.4936 9.05136 13.6048 7.65505C14.2797 6.80422 14.5497 6.28542 14.4649 6.06011C14.3833 5.84963 13.8873 5.90595 13.8873 5.90595L12.2331 5.91485C12.2331 5.91485 12.1107 5.90002 12.0197 5.95042C11.9318 6.00082 11.8753 6.1194 11.8753 6.1194C11.8753 6.1194 11.6116 6.77753 11.2632 7.33784C10.5287 8.51773 10.2305 8.58295 10.1112 8.50884C9.83181 8.3369 9.90087 7.82106 9.90087 7.45642C9.90087 6.30913 10.0861 5.8348 9.54303 5.71029C9.36411 5.66879 9.23227 5.64211 8.77399 5.63914Z" fill="white"/>
</svg>
